<svg xmlns="http://www.w3.org/2000/svg" viewBox="0 0 25.97 27.82"><defs><style>.cls-1{fill:#070707;}</style></defs><title>Calendar</title><g id="Layer_2" data-name="Layer 2"><g id="Layer_1-2" data-name="Layer 1"><path class="cls-1" d="M25.5,1.85H22.26V.46A.46.46,0,0,0,21.79,0H18.55a.46.46,0,0,0-.46.46V1.85H7.88V.46A.46.46,0,0,0,7.42,0H4.17a.46.46,0,0,0-.46.46V1.85H.46A.46.46,0,0,0,0,2.32v25a.46.46,0,0,0,.46.46h25a.46.46,0,0,0,.46-.46v-25A.46.46,0,0,0,25.5,1.85ZM19,.93h2.32V3.71H19V.93ZM4.64.93H7V3.71H4.64V.93ZM.93,2.78H3.71V4.17a.46.46,0,0,0,.46.46H7.42a.46.46,0,0,0,.46-.46V2.78h10.2V4.17a.46.46,0,0,0,.46.46h3.25a.46.46,0,0,0,.46-.46V2.78H25V7H.93Zm0,24.11v-19H25v19Z"/><path class="cls-1" d="M16.69,10.67H4.17V24.11H21.79V10.67h-5.1Zm-3.25.93h3.25v3.25H13.45ZM16.69,19H13.45V15.77h3.25ZM9.27,15.77h3.25V19H9.27Zm0-4.17h3.25v3.25H9.27Zm-4.17,0H8.35v3.25H5.1Zm0,4.17H8.35V19H5.1Zm3.25,7.42H5.1V19.94H8.35Zm4.17,0H9.27V19.94h3.25Zm4.17,0H13.45V19.94h3.25Zm4.17,0H17.62V19.94h3.25Zm0-4.17H17.62V15.77h3.25Zm0-7.42v3.25H17.62V11.59Z"/></g></g></svg>