<svg xmlns="http://www.w3.org/2000/svg" viewBox="0 0 27.33 27.33"><defs><style>.cls-1{fill:#070707;}</style></defs><title>Clock</title><g id="Layer_2" data-name="Layer 2"><g id="Layer_1-2" data-name="Layer 1"><path class="cls-1" d="M13.67,0A13.67,13.67,0,1,0,27.33,13.67,13.68,13.68,0,0,0,13.67,0Zm0,26.42A12.76,12.76,0,1,1,26.42,13.67,12.77,12.77,0,0,1,13.67,26.42Z"/><path class="cls-1" d="M13.67,2.73a.46.46,0,0,0-.46.46V13.67H6.38a.46.46,0,1,0,0,.91h7.29a.46.46,0,0,0,.46-.46V3.19A.46.46,0,0,0,13.67,2.73Z"/></g></g></svg>