<svg xmlns="http://www.w3.org/2000/svg" viewBox="0 0 29 29"><defs><style>.cls-1{fill:#fff;}</style></defs><title>Location</title><g id="Layer_2" data-name="Layer 2"><g id="Layer_1-2" data-name="Layer 1"><path class="cls-1" d="M14.5,3.22A11.28,11.28,0,1,0,25.78,14.5,11.28,11.28,0,0,0,14.5,3.22Zm0,21.43A10.15,10.15,0,1,1,24.65,14.5,10.15,10.15,0,0,1,14.5,24.65Z"/><rect class="cls-1" x="0.56" y="13.94" width="6.44" height="1.13"/><circle class="cls-1" cx="0.56" cy="14.5" r="0.56"/><circle class="cls-1" cx="7.01" cy="14.5" r="0.56"/><rect class="cls-1" x="21.99" y="13.94" width="6.44" height="1.13"/><circle class="cls-1" cx="21.99" cy="14.5" r="0.56"/><circle class="cls-1" cx="28.44" cy="14.5" r="0.56"/><rect class="cls-1" x="13.94" y="21.99" width="1.13" height="6.44"/><circle class="cls-1" cx="14.5" cy="28.44" r="0.56"/><circle class="cls-1" cx="14.5" cy="21.99" r="0.56"/><rect class="cls-1" x="13.94" y="0.56" width="1.13" height="6.44"/><circle class="cls-1" cx="14.5" cy="7.01" r="0.56"/><circle class="cls-1" cx="14.5" cy="0.56" r="0.56"/><path class="cls-1" d="M14.5,13.37a1.13,1.13,0,1,0,1.13,1.13A1.13,1.13,0,0,0,14.5,13.37Z"/></g></g></svg>