<svg xmlns="http://www.w3.org/2000/svg" viewBox="0 0 150.05 26.85"><defs><style>.cls-1{fill:#fff;}</style></defs><title>Logo</title><g id="Layer_2" data-name="Layer 2"><g id="Layer_1-2" data-name="Layer 1"><path class="cls-1" d="M13.41,25.24c3.68,0,4.8-.67,5.53-1.71a5.64,5.64,0,0,0,.7-1.89c.07-.35.14-.56.32-.56s.28.14.28.8a22.94,22.94,0,0,1-.7,4c-.21.84-.25.91-1,.91-5.85,0-11.73-.17-17.85-.17-.42,0-.63,0-.63-.28s.07-.35.49-1C5.71,17.5,11,9.63,15.86,1.71H8.26c-1.79,0-3.92.11-5,.7a4,4,0,0,0-2,2.77c-.07.52-.21.63-.38.63S.63,5.64.63,5.36s.52-3.61.7-4.66C1.4.21,1.47,0,1.68,0A9.66,9.66,0,0,0,3.15.28c3.33.14,5,.1,6.09.1H19c.53,0,.7.07.7.28a.59.59,0,0,1-.14.42C14.49,9.14,9.21,17.19,3.89,25.24Z"/><path class="cls-1" d="M27.89,10.43c0-5.46,0-6.44-.07-7.56s-.35-1.75-1.5-2a8.32,8.32,0,0,0-1-.1c-.24,0-.46-.07-.46-.21s.18-.28.56-.28c.8,0,1.75,0,4,.1.25,0,7.21,0,8,0A5.84,5.84,0,0,0,39,.14.85.85,0,0,1,39.38,0c.1,0,.14.14.14.31A15.29,15.29,0,0,0,39.24,2c0,.53-.07,1.19-.14,2.1,0,.35-.14.59-.28.59s-.28-.17-.28-.46A3.47,3.47,0,0,0,38.36,3c-.25-.81-1-1.16-2.52-1.3-.59-.07-4.41-.1-4.8-.1-.14,0-.21.1-.21.35v9.66c0,.25,0,.35.21.35.46,0,4.76,0,5.57-.07s1.4-.17,1.75-.59c.17-.21.28-.35.42-.35s.18.07.18.28-.18.81-.28,2-.1,1.89-.14,2.38-.1.53-.25.53-.24-.28-.24-.56a3.15,3.15,0,0,0-.14-1c-.14-.53-.56-1-1.82-1.16-.95-.1-4.41-.18-5-.18a.22.22,0,0,0-.24.25v3.08c0,1.19,0,5.25,0,6,.07,1.44.28,2.21,1.15,2.56a8.47,8.47,0,0,0,2.91.32A11.6,11.6,0,0,0,38,25.13c1.12-.35,1.5-1.08,1.79-2.59.07-.39.14-.53.31-.53s.21.28.21.53-.28,2.66-.46,3.4c-.25.91-.52.91-1.89.91-2.59,0-3.75-.07-5.11-.1s-3-.1-4.38-.1c-.84,0-1.68.14-2.59.1-.39,0-.56-.07-.56-.28s.17-.18.38-.21a4.45,4.45,0,0,0,.8-.1c.74-.17,1.19-.67,1.26-3.29,0-1.37.07-3.15.07-6.27Z"/><path class="cls-1" d="M48.47,10.43c0-5.46,0-6.44-.07-7.56s-.35-1.75-1.5-2a6.56,6.56,0,0,0-1.19-.1c-.14,0-.28-.07-.28-.21s.18-.28.56-.28c1.58,0,3.68.1,4,.1.77,0,2.8-.1,4.41-.1,4.38,0,6,1.47,6.51,2a6.38,6.38,0,0,1,1.75,4.59c0,4.55-3.64,7.91-8.61,7.91a5.13,5.13,0,0,1-.73,0c-.18,0-.39-.07-.39-.25s.21-.31.95-.31a5.77,5.77,0,0,0,6.06-6,7.22,7.22,0,0,0-2-5.11,6.08,6.08,0,0,0-4.79-1.75,4.31,4.31,0,0,0-1.51.21c-.21.07-.28.31-.28.67V16.59c0,3.36,0,6.13.17,7.6.1,1,.32,1.79,1.37,1.93a15.32,15.32,0,0,0,1.58.14c.21,0,.28.1.28.21s-.17.28-.56.28c-1.92,0-4.13-.1-4.31-.1s-2.31.1-3.36.1c-.39,0-.56-.07-.56-.28s.07-.21.28-.21a5.4,5.4,0,0,0,1.05-.14c.7-.14.88-.91,1-1.93.17-1.47.17-4.24.17-7.6Z"/><path class="cls-1" d="M88.2,11.38a.18.18,0,0,0,.21-.21v-.73c0-5.46,0-6.44-.07-7.56s-.35-1.75-1.5-2a6.56,6.56,0,0,0-1.19-.1c-.14,0-.28-.07-.28-.21s.17-.28.56-.28c1.58,0,3.78.1,4,.1s2.38-.1,3.43-.1c.38,0,.56.07.56.28s-.14.21-.28.21a5.24,5.24,0,0,0-.88.1c-.94.17-1.22.77-1.29,2s-.07,2.1-.07,7.56v6.16c0,3.36,0,6.13.17,7.6.11,1,.31,1.79,1.37,1.93a15.3,15.3,0,0,0,1.58.14c.21,0,.28.1.28.21s-.18.28-.56.28c-1.92,0-4.13-.1-4.3-.1s-2.38.1-3.43.1c-.38,0-.56-.07-.56-.28s.07-.21.28-.21a5.42,5.42,0,0,0,1-.14c.7-.14.88-.91,1-1.93.18-1.47.18-4.24.18-7.6V12.92a.2.2,0,0,0-.21-.21H73.36a.18.18,0,0,0-.21.21v3.68c0,3.36,0,6.13.18,7.6.1,1,.31,1.79,1.36,1.93a15.32,15.32,0,0,0,1.58.14c.21,0,.28.1.28.21s-.17.28-.56.28c-1.93,0-4.13-.1-4.31-.1s-2.38.1-3.43.1c-.38,0-.56-.07-.56-.28s.07-.21.28-.21a5.4,5.4,0,0,0,1-.14c.7-.14.88-.91,1-1.93.17-1.47.17-4.24.17-7.6V10.43c0-5.46,0-6.44-.07-7.56s-.35-1.75-1.51-2a6.55,6.55,0,0,0-1.19-.1c-.14,0-.28-.07-.28-.21s.17-.28.56-.28c1.58,0,3.78.1,4,.1s2.38-.1,3.43-.1c.38,0,.56.07.56.28s-.14.21-.28.21a5.22,5.22,0,0,0-.87.1c-.95.17-1.22.77-1.29,2s-.07,2.1-.07,7.56v.73a.18.18,0,0,0,.21.21Z"/><path class="cls-1" d="M107.63,17.68a7.42,7.42,0,0,0-.8-3.68c-.25-.56-4.94-8.26-6.16-10.08a9.8,9.8,0,0,0-2.38-2.59,3.35,3.35,0,0,0-1.5-.56c-.17,0-.35-.07-.35-.25s.14-.25.46-.25c.67,0,3.29.1,3.47.1s1.58-.1,2.94-.1c.38,0,.46.1.46.25s-.21.18-.53.31a.71.71,0,0,0-.46.63,3,3,0,0,0,.46,1.36c.56,1,5.81,10,6.44,11.06.66-1.47,5.11-9.14,5.81-10.29a3.41,3.41,0,0,0,.59-1.79c0-.49-.14-.88-.56-1S115,.67,115,.49s.21-.21.56-.21c.91,0,2,.1,2.31.1s2.73-.1,3.4-.1c.24,0,.46.07.46.21s-.18.28-.46.28a3.33,3.33,0,0,0-1.61.49A6.67,6.67,0,0,0,117.78,3a111.49,111.49,0,0,0-6.69,11.13,8.37,8.37,0,0,0-.53,3.5v3c0,.56,0,2,.11,3.5.07,1,.38,1.79,1.43,1.93a15.29,15.29,0,0,0,1.58.14c.21,0,.28.1.28.21s-.17.28-.56.28c-1.92,0-4.13-.1-4.3-.1s-2.38.1-3.43.1c-.38,0-.56-.07-.56-.28s.07-.21.28-.21a5.42,5.42,0,0,0,1.05-.14c.7-.14,1-.91,1.08-1.93.1-1.47.1-2.94.1-3.5Z"/><path class="cls-1" d="M126.63,10.43c0-5.46,0-6.44-.07-7.56s-.35-1.75-1.5-2a6.56,6.56,0,0,0-1.19-.1c-.14,0-.28-.07-.28-.21s.18-.28.56-.28c1.58,0,3.78.1,4,.1.38,0,3-.1,4.13-.1,2.21,0,4.55.21,6.41,1.54a6.13,6.13,0,0,1,2.42,4.76c0,2.59-1.08,5.18-4.24,8.09,2.87,3.68,5.25,6.79,7.28,9a7.24,7.24,0,0,0,4.27,2.52,8.38,8.38,0,0,0,1.37.1c.17,0,.31.1.31.21s-.21.28-.84.28h-2.49a7.12,7.12,0,0,1-3.75-.67c-1.51-.81-2.73-2.52-4.73-5.15-1.47-1.93-3.12-4.27-3.82-5.18a.56.56,0,0,0-.46-.21l-4.31-.07c-.17,0-.25.1-.25.28v.84c0,3.36,0,6.13.18,7.6.1,1,.31,1.79,1.37,1.93a15.29,15.29,0,0,0,1.57.14c.21,0,.28.1.28.21s-.17.28-.56.28c-1.93,0-4.13-.1-4.31-.1s-2.24.1-3.29.1c-.39,0-.56-.07-.56-.28s.07-.21.28-.21a5.4,5.4,0,0,0,1.05-.14c.7-.14.88-.91,1-1.93.17-1.47.17-4.24.17-7.6Zm2.8,3a.46.46,0,0,0,.25.42,9.65,9.65,0,0,0,3.67.56,4.53,4.53,0,0,0,2.63-.67c1.23-.84,2.14-2.73,2.14-5.39,0-4.38-2.31-7-6.06-7a10.57,10.57,0,0,0-2.34.21.42.42,0,0,0-.28.42Z"/></g></g></svg>